<svg width="202" height="60" viewBox="0 0 202 60" fill="none" xmlns="http://www.w3.org/2000/svg">
<g clip-path="url(#clip0_101_405)">
<path d="M48.8028 8.4205C46.134 5.75092 42.9654 3.63325 39.478 2.18845C35.9905 0.74364 32.2527 0 28.4778 0C24.703 0 20.9651 0.74364 17.4777 2.18845C13.9903 3.63325 10.8217 5.75092 8.15283 8.4205L19.2928 19.5505C21.7486 17.2042 25.0252 15.9122 28.4215 15.9509C31.8178 15.9896 35.064 17.356 37.4657 19.7576C39.8674 22.1593 41.2337 25.4056 41.2725 28.8019C41.3112 32.1981 40.0192 35.4747 37.6728 37.9305L48.8128 49.0705C51.4818 46.401 53.5986 43.2318 55.0426 39.7441C56.4865 36.2563 57.2293 32.5183 57.2283 28.7434C57.2274 24.9686 56.4828 21.2309 55.0372 17.7439C53.5915 14.2568 51.4731 11.0887 48.8028 8.4205Z" fill="#81C0E4"/>
<path d="M37.663 37.9405C36.4711 39.2121 35.0356 40.2311 33.442 40.9368C31.8485 41.6425 30.1292 42.0206 28.3866 42.0485C26.6439 42.0765 24.9135 41.7537 23.2981 41.0994C21.6827 40.4452 20.2153 39.4728 18.9833 38.2401C17.7512 37.0073 16.7796 35.5395 16.1262 33.9237C15.4729 32.3079 15.151 30.5773 15.1799 28.8347C15.2088 27.0921 15.5878 25.373 16.2944 23.7798C17.001 22.1866 18.0207 20.7517 19.293 19.5605L8.15296 8.42053C2.87973 13.8355 -0.0490161 21.1092 0.000620795 28.6674C0.0502577 36.2255 3.07428 43.4602 8.41818 48.8054C13.7621 54.1506 20.996 57.1764 28.5541 57.2279C36.1123 57.2794 43.3867 54.3524 48.803 49.0805L37.673 37.9305L37.663 37.9405Z" fill="#225699"/>
</g>
<path d="M99.22 40.38L104.32 45.42C102.32 47.42 100 48.99 97.36 50.13C94.72 51.27 91.88 51.84 88.84 51.84C85.84 51.84 83.01 51.27 80.35 50.13C77.69 48.99 75.37 47.43 73.39 45.45C71.41 43.47 69.85 41.15 68.71 38.49C67.57 35.83 67 33 67 30C67 27 67.57 24.17 68.71 21.51C69.85 18.85 71.41 16.53 73.39 14.55C75.37 12.57 77.69 11.01 80.35 9.86998C83.01 8.72998 85.84 8.15997 88.84 8.15997C91.88 8.15997 94.72 8.72998 97.36 9.86998C100 11.01 102.32 12.58 104.32 14.58L99.22 19.68C97.82 18.28 96.24 17.21 94.48 16.47C92.72 15.73 90.84 15.36 88.84 15.36C86.88 15.36 85.02 15.73 83.26 16.47C81.5 17.21 79.92 18.28 78.52 19.68C77.12 21.08 76.05 22.66 75.31 24.42C74.57 26.18 74.2 28.04 74.2 30C74.2 31.96 74.57 33.83 75.31 35.61C76.05 37.39 77.12 38.98 78.52 40.38C79.92 41.78 81.5 42.84 83.26 43.56C85.02 44.28 86.88 44.64 88.84 44.64C90.84 44.64 92.72 44.28 94.48 43.56C96.24 42.84 97.82 41.78 99.22 40.38ZM136.48 39.66H128.92H113.2C113.6 40.58 114.18 41.4 114.94 42.12C115.78 42.96 116.72 43.59 117.76 44.01C118.8 44.43 119.9 44.64 121.06 44.64C122.7 44.64 124.16 44.26 125.44 43.5L132.94 46.5C131.5 48.18 129.76 49.49 127.72 50.43C125.68 51.37 123.46 51.84 121.06 51.84C118.86 51.84 116.8 51.43 114.88 50.61C112.96 49.79 111.28 48.66 109.84 47.22C108.4 45.78 107.27 44.1 106.45 42.18C105.63 40.26 105.22 38.22 105.22 36.06C105.22 33.86 105.63 31.8 106.45 29.88C107.27 27.96 108.4 26.28 109.84 24.84C111.28 23.4 112.96 22.27 114.88 21.45C116.8 20.63 118.86 20.22 121.06 20.22C123.26 20.22 125.32 20.63 127.24 21.45C129.16 22.27 130.84 23.4 132.28 24.84C133.72 26.28 134.85 27.96 135.67 29.88C136.49 31.8 136.9 33.86 136.9 36.06C136.9 37.34 136.76 38.54 136.48 39.66ZM121.06 27.42C118.74 27.42 116.7 28.26 114.94 29.94C114.18 30.7 113.6 31.54 113.2 32.46H128.92C128.52 31.54 127.94 30.7 127.18 29.94C125.5 28.26 123.46 27.42 121.06 27.42ZM147.4 51.06H140.2V9.05997H147.4V51.06ZM181.96 39.66H174.4H158.68C159.08 40.58 159.66 41.4 160.42 42.12C161.26 42.96 162.2 43.59 163.24 44.01C164.28 44.43 165.38 44.64 166.54 44.64C168.18 44.64 169.64 44.26 170.92 43.5L178.42 46.5C176.98 48.18 175.24 49.49 173.2 50.43C171.16 51.37 168.94 51.84 166.54 51.84C164.34 51.84 162.28 51.43 160.36 50.61C158.44 49.79 156.76 48.66 155.32 47.22C153.88 45.78 152.75 44.1 151.93 42.18C151.11 40.26 150.7 38.22 150.7 36.06C150.7 33.86 151.11 31.8 151.93 29.88C152.75 27.96 153.88 26.28 155.32 24.84C156.76 23.4 158.44 22.27 160.36 21.45C162.28 20.63 164.34 20.22 166.54 20.22C168.74 20.22 170.8 20.63 172.72 21.45C174.64 22.27 176.32 23.4 177.76 24.84C179.2 26.28 180.33 27.96 181.15 29.88C181.97 31.8 182.38 33.86 182.38 36.06C182.38 37.34 182.24 38.54 181.96 39.66ZM166.54 27.42C164.22 27.42 162.18 28.26 160.42 29.94C159.66 30.7 159.08 31.54 158.68 32.46H174.4C174 31.54 173.42 30.7 172.66 29.94C170.98 28.26 168.94 27.42 166.54 27.42ZM192.88 23.34C194 22.42 195.27 21.66 196.69 21.06C198.11 20.46 199.72 20.16 201.52 20.16V27.36C199.12 27.36 197.08 28.2 195.4 29.88C193.72 31.64 192.88 33.68 192.88 36V51.06H185.68V36V21H192.88V23.34Z" fill="#225699"/>
<defs>
<clipPath id="clip0_101_405">
<rect width="57.2285" height="57.2285" fill="white"/>
</clipPath>
</defs>
</svg>
